# AST/ASF file generated using VICON BodyLanguage
# -----------------------------------------------
:version 1.10
:name VICON
:units
  mass 1.0
  length 0.45
  angle deg
:documentation
   .ast/.asf automatically generated from VICON data using
   VICON BodyBuilder and BodyLanguage model FoxedUp or BRILLIANT.MOD
:root
   order TX TY TZ RX RY RZ
   axis XYZ
   position 0 0 0  
   orientation 0 0 0 
:bonedata
  begin
     id 1 
     name lhipjoint
     direction 0.650112 -0.723553 0.232005 
     length 2.45805 
     axis 0 0 0  XYZ
  end
  begin
     id 2 
     name lfemur
     direction 0.34202 -0.939693 0  
     length 7.00073  
     axis 0 0 20  XYZ
    dof rx ry rz
    limits (-160.0 20.0)
           (-70.0 70.0)
           (-60.0 70.0)
  end
  begin
     id 3 
     name ltibia
     direction 0.34202 -0.939693 0   
     length 7.8748   
     axis 0 0 20   XYZ
    dof rx
    limits (-10.0 170.0)
  end
  begin
     id 4 
     name lfoot
     direction 0.0542825 -0.14914 0.987325   
     length 1.75978   
     axis -90 7.62852e-016 20   XYZ
    dof rx rz
    limits (-45.0 90.0)
           (-70.0 20.0)
  end
  begin
     id 5 
     name ltoes
     direction 1.53509e-011 -4.21906e-011 1   
     length 0.893912   
     axis -90 7.62852e-016 20   XYZ
    dof rx
    limits (-90.0 20.0)
  end
  begin
     id 6 
     name rhipjoint
     direction -0.637897 -0.733345 0.235145   
     length 2.42522  
     axis 0 0 0  XYZ 
  end
  begin
     id 7 
     name rfemur
     direction -0.34202 -0.939693 0   
     length 7.02549   
     axis 0 0 -20   XYZ
    dof rx ry rz
    limits (-160.0 20.0)
           (-70.0 70.0)
           (-70.0 60.0)
  end
  begin
     id 8 
     name rtibia
     direction -0.34202 -0.939693 0   
     length 7.71512   
     axis 0 0 -20   XYZ
    dof rx
    limits (-10.0 170.0)
 end
 begin
     id 9 
     name rfoot
     direction -0.0822618 -0.226012 0.970645   
     length 1.90014  
     axis -90 -7.62852e-016 -20   XYZ
    dof rx rz
    limits (-45.0 90.0)
           (-20.0 70.0)
  end
  begin
     id 10 
     name rtoes
     direction -1.53542e-011 -4.21872e-011 1   
     length 0.957341   
     axis -90 -7.62852e-016 -20   XYZ
    dof rx
    limits (-90.0 20.0)
  end
  begin
     id 11 
     name lowerback
     direction -0.0022947 0.999774 -0.0211557   
     length 1.89909   
     axis 0 0 0   XYZ
    dof rx ry rz
    limits (-20.0 45.0)
           (-30.0 30.0)
           (-30.0 30.0)
  end
  begin
     id 12 
     name upperback
     direction 0.0107737 0.998635 0.0511027   
     length 1.8853   
     axis 0 0 0   XYZ
    dof rx ry rz
    limits (-20.0 45.0)
           (-30.0 30.0)
           (-30.0 30.0)
  end
  begin
     id 13 
     name thorax
     direction 0.011824 0.998136 0.0598754   
     length 1.88911   
     axis 0 0 0   XYZ
    dof rx ry rz
    limits (-20.0 45.0)
           (-30.0 30.0)
           (-30.0 30.0)
  end
  begin
     id 14 
     name lowerneck
     direction -0.0685355 0.990319 0.120714   
     length 1.91222   
     axis 0 0 0   XYZ
    dof rx ry rz
    limits (-20.0 45.0)
           (-30.0 30.0)
           (-30.0 30.0)
  end
  begin
     id 15 
     name upperneck
     direction 0.0886204 0.955665 -0.280805   
     length 1.92526   
     axis 0 0 0   XYZ
    dof rx ry rz
    limits (-20.0 45.0)
           (-30.0 30.0)
           (-30.0 30.0)
  end
  begin
     id 16
     name head
     direction 0.0233423 0.993502 -0.111393  
     length 1.96056  
     axis 0 0 0   XYZ
    dof rx ry rz
    limits (-20.0 45.0)
           (-30.0 30.0)
           (-30.0 30.0)
  end
  begin
     id 17 
     name lclavicle
     direction 0.941873 0.32922 0.0670041  
     length 3.31705  
     axis 0 0 0   XYZ
    dof ry rz
    limits (-20.0 10.0)
           (0.0 20.0)
  end
  begin
     id 18 
     name lhumerus
     direction 1 -4.4898e-011 3.38707e-028   
     length 5.29277   
     axis 180 -30 -90   XYZ
    dof rx ry rz
    limits (-60.0 90.0)
           (-90.0 90.0)
           (-90.0 90.0)
  end
  begin
     id 19
     name lradius
     direction 1 -4.48952e-011 1.63213e-028   
     length 2.85226   
     axis 180 -30 -90   XYZ
    dof rx
    limits (-10.0 170.0)
  end
  begin
     id 20
     name lwrist
     direction 1 -4.49001e-011 1.27856e-027   
     length 1.42613   
     axis -1.61767e-015 90 90   XYZ
    dof ry
    limits (-180.0 0.0)
 end
  begin
     id 21 
     name lhand
     direction 1 -4.48976e-011 2.55931e-027   
     length 0.602097   
     axis -1.63363e-015 90 90   XYZ
    dof rx rz
    limits (-90.0 90.0)
           (-45.0 45.0)
  end
  begin
     id 22 
     name lfingers
     direction 1 -4.48986e-011 5.11684e-027   
     length 0.485426   
     axis -3.26723e-015 90 90   XYZ
    dof rx
    limits (0.0 90.0)
  end
  begin
     id 23
     name lthumb
     direction 0.707107 -6.34915e-011 0.707107   
     length 0.696978   
     axis -90 45 -2.25915e-014   XYZ
    dof rx rz
    limits (-45.0 45.0)
           (-45.0 45.0)
  end
  begin
     id 24 
     name rclavicle
     direction -0.939974 0.327078 0.0973096   
     length 3.10337  
     axis 0 0 0   XYZ 
    dof ry rz
    limits (-10.0 20.0)
           (-20.0 0.0)
  end
  begin
     id 25 
     name rhumerus
     direction -1 -4.48975e-011 1.83745e-027  
     length 5.13304   
     axis 180 30 90   XYZ
    dof rx ry rz
    limits (-90.0 60.0)
           (-90.0 90.0)
           (-90.0 90.0)
  end
  begin
     id 26 
     name rradius
     direction -1 -4.48977e-011 7.1775e-029   
     length 2.74305   
     axis 180 30 90   XYZ
    dof rx
    limits (-10.0 170.0)
  end
  begin
     id 27 
     name rwrist
     direction -1 -4.48977e-011 1.27963e-027   
     length 1.37152   
     axis -1.61767e-015 -90 -90   XYZ
    dof ry
    limits (-180.0 0.0)
  end
  begin
     id 28
     name rhand
     direction -1 -4.4888e-011 2.56782e-027   
     length 0.767976   
     axis -1.63363e-015 -90 -90   XYZ
    dof rx rz
    limits (-90.0 90.0)
           (-45.0 45.0)
  end
  begin
     id 29
     name rfingers
     direction -1 -4.48947e-011 5.12384e-027   
     length 0.619162   
     axis -3.26723e-015 -90 -90   XYZ
    dof rx
    limits (0.0 90.0)
  end
  begin
     id 30
     name rthumb
     direction -0.707107 -6.34857e-011 0.707107   
     length 0.888997   
     axis -90 -45 2.25915e-014   XYZ
    dof rx rz
    limits (-45.0 45.0)
           (-45.0 45.0)
  end
:hierarchy
  begin
    root lhipjoint rhipjoint lowerback
    lhipjoint lfemur
    lfemur ltibia
    ltibia lfoot
    lfoot ltoes
    rhipjoint rfemur
    rfemur rtibia
    rtibia rfoot
    rfoot rtoes
    lowerback upperback
    upperback thorax
    thorax lowerneck lclavicle rclavicle
    lowerneck upperneck
    upperneck head
    lclavicle lhumerus
    lhumerus lradius
    lradius lwrist
    lwrist lhand lthumb
    lhand lfingers
    rclavicle rhumerus
    rhumerus rradius
    rradius rwrist
    rwrist rhand rthumb
    rhand rfingers
  end

#!OML:ASF F:\VICON\USERDATA\INSTALL\rory3\rory3.ASF
:FULLY-SPECIFIED
:DEGREES
888
root 0.189959 17.4906 0.17912 4.45533 3.03638 0.0892211
lowerback -1.40356 -0.104133 -2.82361
upperback -3.61822 -0.139177 0.456774
thorax -2.92515 0.0168444 2.0535
lowerneck -9.99094 -12.7129 -19.2501
upperneck 18.8003 -18.9638 19.9485
head 11.71 -8.49657 7.5418
rclavicle -3.10601e-015 7.55382e-015
rhumerus 4.2374 27.9465 -76.976
rradius 67.7819
rwrist 26.0747
rhand -11.0262 8.54445
rfingers 7.12502
rthumb 14.9952 -20.8926
lclavicle -3.10601e-015 7.55382e-015
lhumerus 22.9505 -27.0892 75.4967
lradius 78.4126
lwrist -17.9823
lhand -13.1831 27.3383
lfingers 7.12502
lthumb 12.9167 56.9185
rfemur 0 0 0
rtibia 0
rfoot 0 0
rtoes 0
lfemur -6.98733 -17.2872 -17.5981
ltibia 14.0515
lfoot -11.4488 10.6349
ltoes -19.4499
889
root 0.193723 17.4912 0.178651 4.45554 2.93891 0.134406
lowerback -1.44071 -0.11871 -2.78227
upperback -3.63602 -0.157301 0.469591
thorax -2.92155 0.00696862 2.04365
lowerneck -10.1723 -12.6701 -19.1762
upperneck 19.1617 -18.8724 19.6614
head 11.8135 -8.45526 7.44179
rclavicle -7.96536e-015 5.54112e-015
rhumerus 5.25761 27.5883 -76.5748
rradius 68.5086
rwrist 25.9088
rhand -10.9878 8.56707
rfingers 7.12502
rthumb 15.0322 -20.8672
lclavicle -7.96536e-015 5.54112e-015
lhumerus 21.8322 -27.5659 75.8324
lradius 77.2181
lwrist -18.3985
lhand -13.3453 27.3478
lfingers 7.12502
lthumb 12.7603 56.9379
rfemur 0 0 0
rtibia 0
rfoot 0 0
rtoes 0
lfemur -6.95027 -17.2077 -17.6909
ltibia 14.0309
lfoot -11.3276 10.701
ltoes -20.526
890
root 0.196106 17.4906 0.176088 4.48945 2.91729 0.0725173
lowerback -1.47509 -0.156427 -2.57852
upperback -3.68478 -0.206039 0.484977
thorax -2.94973 -0.0219112 1.94571
lowerneck -10.3317 -12.6081 -19.123
upperneck 19.5323 -18.7658 19.4186
head 11.9222 -8.40726 7.36792
rclavicle 9.54244e-015 -2.07109e-014
rhumerus 6.28567 27.2023 -76.2336
rradius 69.3097
rwrist 25.587
rhand -11.0355 8.37281
rfingers 7.12502
rthumb 14.9863 -21.0649
lclavicle 9.54244e-015 -2.07109e-014
lhumerus 20.6688 -28.1185 76.1937
lradius 76.0755
lwrist -18.9379
lhand -13.1583 27.2105
lfingers 7.12502
lthumb 12.9406 56.7892
rfemur 0 0 0
rtibia 0
rfoot 0 0
rtoes 0
lfemur -6.99492 -17.1871 -17.6054
ltibia 14.0032
lfoot -11.1937 10.7486
ltoes -21.0022
891
root 0.19606 17.4904 0.169761 4.50146 2.94428 0.101689
lowerback -1.43237 -0.209547 -2.49202
upperback -3.7188 -0.278571 0.465445
thorax -3.00528 -0.0598095 1.87815
lowerneck -10.3844 -12.5448 -19.0224
upperneck 19.7222 -18.6736 19.2605
head 11.9508 -8.36549 7.31452
rclavicle -8.51979e-015 8.33653e-015
rhumerus 7.3415 26.7565 -75.9678
rradius 70.079
rwrist 25.4012
rhand -11.047 8.10275
rfingers 7.12502
rthumb 14.9752 -21.3358
lclavicle -8.51979e-015 8.33653e-015
lhumerus 19.5191 -28.6848 76.6313
lradius 75.0713
lwrist -19.294
lhand -13.0522 27.1573
lfingers 7.12502
lthumb 13.0429 56.7295
rfemur 0 0 0
rtibia 0
rfoot 0 0
rtoes 0
lfemur -7.04179 -17.2214 -17.6012
ltibia 13.9931
lfoot -11.1771 10.7143
ltoes -20.8733
892
root 0.199141 17.4889 0.164709 4.39311 2.97429 0.160678
lowerback -1.34542 -0.274585 -2.5939
upperback -3.68814 -0.365456 0.571281
thorax -3.01737 -0.0988005 2.04572
lowerneck -10.457 -12.4686 -18.9801
upperneck 19.9204 -18.5158 18.9941
head 11.9639 -8.30579 7.24044
rclavicle -1.87914e-015 -4.52235e-015
rhumerus 8.49361 26.4098 -75.4893
rradius 70.76
rwrist 25.4791
rhand -11.3529 8.01021
rfingers 7.12502
rthumb 14.6806 -21.4501
lclavicle -1.87914e-015 -4.52235e-015
lhumerus 18.3139 -29.2199 77.2728
lradius 74.1643
lwrist -19.2494
lhand -12.844 27.6593
lfingers 7.12502
lthumb 13.2436 57.2185
rfemur 0 0 0
rtibia 0
rfoot 0 0
rtoes 0
lfemur -6.92278 -17.2705 -17.6988
ltibia 13.9581
lfoot -11.2694 10.6297
ltoes -20.0526
893
root 0.205338 17.487 0.166789 4.26339 2.83801 0.161797
lowerback -1.36408 -0.287785 -2.67703
upperback -3.62373 -0.378431 0.741796
thorax -2.93846 -0.102178 2.26787
lowerneck -10.5718 -12.4018 -18.9344
upperneck 20.0848 -18.335 18.6491
head 11.9573 -8.24008 7.13525
rclavicle 7.11898e-015 1.0138e-014
rhumerus 9.69575 26.1342 -74.8471
rradius 71.4796
rwrist 25.5368
rhand -11.9086 7.9148
rfingers 7.12502
rthumb 14.1451 -21.5837
lclavicle 7.11898e-015 1.0138e-014
lhumerus 17.0319 -29.7241 78.0754
lradius 73.2747
lwrist -19.37
lhand -11.9499 28.2736
lfingers 7.12502
lthumb 14.1053 57.7749
rfemur 0 0 0
rtibia 0
rfoot 0 0
rtoes 0
lfemur -6.7263 -17.1551 -17.8009
ltibia 13.9424
lfoot -11.1891 10.7102
ltoes -20.732
894
root 0.215004 17.4861 0.175502 4.2027 2.5317 0.241218
lowerback -1.50309 -0.229905 -2.51512
upperback -3.56153 -0.298638 0.644401
thorax -2.80096 -0.0710312 2.07473
lowerneck -10.87 -12.3649 -18.6117
upperneck 20.4012 -18.2601 18.3247
head 12.0436 -8.18689 6.96833
rclavicle 5.34234e-016 5.51627e-015
rhumerus 10.8272 25.6307 -74.5346
rradius 72.1562
rwrist 25.5358
rhand -12.4292 7.91796
rfingers 7.12502
rthumb 13.6434 -21.6149
lclavicle 5.34234e-016 5.51627e-015
lhumerus 15.7953 -30.3591 78.5459
lradius 72.2143
lwrist -19.9042
lhand -11.1088 27.8823
lfingers 7.12502
lthumb 14.9157 57.3253
rfemur 0 0 0
rtibia 0
rfoot 0 0
rtoes 0
lfemur -6.54817 -16.8796 -18.0274
ltibia 13.9562
lfoot -11.1827 10.7734
ltoes -21.1803
895
root 0.222161 17.4867 0.179242 4.20035 2.36418 0.115092
lowerback -1.63441 -0.232849 -2.21861
upperback -3.51313 -0.298306 0.653874
thorax -2.67736 -0.0808152 1.91722
lowerneck -11.0746 -12.3001 -18.362
upperneck 20.5447 -18.1382 18.0877
head 12.0543 -8.11935 6.85592
rclavicle 4.21796e-015 7.55382e-015
rhumerus 12.0623 25.2557 -74.1436
rradius 72.8489
rwrist 25.5928
rhand -12.7198 7.68033
rfingers 7.12502
rthumb 13.3633 -21.8711
lclavicle 4.21796e-015 7.55382e-015
lhumerus 14.5378 -30.8452 79.1162
lradius 71.0578
lwrist -20.3103
lhand -10.7168 26.8434
lfingers 7.12502
lthumb 15.2933 56.258
rfemur 0 0 0
rtibia 0
rfoot 0 0
rtoes 0
lfemur -6.51998 -16.7154 -17.9394
ltibia 13.9904
lfoot -11.3283 10.6931
ltoes -20.5541
896
root 0.228395 17.4856 0.178123 4.15298 2.36108 0.0355335
lowerback -1.60239 -0.287183 -2.16227
upperback -3.49971 -0.368536 0.790104
thorax -2.67752 -0.11554 2.02642
lowerneck -11.0934 -12.2156 -18.319
upperneck 20.5603 -17.9783 17.9435
head 12.0053 -8.05556 6.82593
rclavicle -1.83876e-015 -1.59028e-015
rhumerus 13.1821 24.964 -73.6861
rradius 73.5031
rwrist 25.6925
rhand -12.8069 7.48732
rfingers 7.12502
rthumb 13.2793 -22.0696
lclavicle -1.83876e-015 -1.59028e-015
lhumerus 13.2372 -31.357 79.8874
lradius 69.8779
lwrist -20.7775
lhand -11.0002 26.0799
lfingers 7.12502
lthumb 15.0203 55.5151
rfemur 0 0 0
rtibia 0
rfoot 0 0
rtoes 0
lfemur -6.47677 -16.718 -17.8803
ltibia 14.0128
lfoot -11.3938 10.6544
ltoes -20.1544
